<?xml version="1.0" encoding="utf-8"?>
<!-- Generator: Adobe Illustrator 16.0.0, SVG Export Plug-In . SVG Version: 6.00 Build 0)  -->
<!DOCTYPE svg PUBLIC "-//W3C//DTD SVG 1.1 Tiny//EN" "http://www.w3.org/Graphics/SVG/1.1/DTD/svg11-tiny.dtd">
<svg version="1.1" baseProfile="tiny" id="图层_1"
	 xmlns="http://www.w3.org/2000/svg" xmlns:xlink="http://www.w3.org/1999/xlink" x="0px" y="0px" width="113.391px"
	 height="113.391px" viewBox="0 0 113.391 113.391" xml:space="preserve">
<circle fill="none" stroke="#FFFFFF" stroke-width="2" stroke-miterlimit="10" cx="56.821" cy="56.487" r="53.216"/>
<g>
	<path fill="#FFFFFF" d="M59.811,36.198l-27.914,21.67c-5.984,4.649-7.071,13.271-2.424,19.258
		c4.65,5.985,18.834,26.745,21.195,7.571C53.03,65.524,61.61,54.945,77.202,59.361c23.947,7.379,6.517-14.749,1.868-20.737
		S65.8,31.549,59.811,36.198z M47.684,67.959l-3.625,2.813l2.812,3.625c0.707,0.908,0.542,2.22-0.368,2.929
		c-0.907,0.703-2.219,0.54-2.927-0.371l-2.813-3.624l-3.625,2.813c-0.911,0.706-2.22,0.542-2.927-0.369
		c-0.705-0.91-0.542-2.218,0.368-2.926l3.626-2.813l-2.814-3.623c-0.704-0.909-0.542-2.223,0.366-2.927
		c0.913-0.71,2.222-0.542,2.931,0.365l2.812,3.626l3.624-2.813c0.909-0.704,2.222-0.54,2.927,0.368
		C48.761,65.943,48.593,67.253,47.684,67.959z M64.102,40.046c1.054-0.819,2.58-0.629,3.399,0.428
		c0.819,1.059,0.629,2.58-0.426,3.398c-1.056,0.82-2.58,0.629-3.399-0.428C62.856,42.385,63.045,40.864,64.102,40.046z
		 M67.18,53.039c-1.056,0.822-2.578,0.63-3.396-0.424c-0.823-1.059-0.632-2.58,0.424-3.398c1.055-0.82,2.577-0.63,3.398,0.428
		C68.43,50.702,68.234,52.223,67.18,53.039z M75.947,53.007c-1.053,0.819-2.576,0.629-3.396-0.428
		c-0.819-1.057-0.629-2.578,0.428-3.398c1.058-0.82,2.578-0.627,3.396,0.431C77.198,50.666,77.002,52.185,75.947,53.007z
		 M76.088,44.155c-1.054,0.819-2.578,0.627-3.396-0.428c-0.819-1.057-0.63-2.58,0.426-3.398s2.58-0.627,3.399,0.43
		C77.336,41.81,77.148,43.332,76.088,44.155z"/>
	<path fill="#FFFFFF" d="M41.309,20.162c-0.849-0.355-1.828,0.034-2.189,0.885c-0.361,0.848,0.037,1.829,0.886,2.188
		c5.763,2.443,6.374,4.009,6.424,4.432c0.13,1.089-2.145,2.783-3.975,4.146c-2.78,2.068-5.931,4.413-5.733,7.684
		c0.149,2.477,2.134,4.723,6.248,7.065c0.261,0.148,0.546,0.218,0.822,0.218c0.582,0,1.146-0.303,1.453-0.842
		c0.457-0.8,0.177-1.82-0.624-2.278c-3.878-2.207-4.527-3.681-4.568-4.364c-0.088-1.47,2.291-3.243,4.394-4.807
		c2.782-2.068,5.66-4.209,5.295-7.22C49.435,24.694,46.834,22.503,41.309,20.162z"/>
</g>
<g>
	<path fill="#FFFFFF" d="M180.987,22.357h-47.533c-3.961,0-7.175,3.784-7.175,8.45v27.337c0,4.663,3.214,8.444,7.175,8.444h47.533
		c3.963,0,7.174-3.784,7.174-8.444V30.805C188.159,26.141,184.948,22.357,180.987,22.357z M184.477,55.539
		c0,3.921-2.82,7.1-6.306,7.1h-41.764c-3.481,0-6.305-3.179-6.305-7.1V32.572c0-3.92,2.823-7.099,6.305-7.099h41.767
		c3.483,0,6.306,3.179,6.306,7.099v22.967H184.477z"/>
	<path fill="#FFFFFF" d="M118.391,71.973c0,1.492,2.533,2.701,5.66,2.701h66.48c3.128,0,5.66-1.209,5.66-2.701v-3.13h-77.801V71.973
		z M150.34,70.905h13.901v1.708H150.34V70.905z"/>
</g>
</svg>
