<?xml version="1.0" encoding="utf-8"?>
<!-- Generator: Adobe Illustrator 16.0.0, SVG Export Plug-In . SVG Version: 6.00 Build 0)  -->
<!DOCTYPE svg PUBLIC "-//W3C//DTD SVG 1.1 Tiny//EN" "http://www.w3.org/Graphics/SVG/1.1/DTD/svg11-tiny.dtd">
<svg version="1.1" baseProfile="tiny" id="图层_1"
	 xmlns="http://www.w3.org/2000/svg" xmlns:xlink="http://www.w3.org/1999/xlink" x="0px" y="0px" width="113.39px"
	 height="113.39px" viewBox="0 0 113.39 113.39" xml:space="preserve">
<circle fill-rule="evenodd" fill="none" stroke="#FFFFFF" stroke-width="2" stroke-miterlimit="10" cx="56.135" cy="56.689" r="54.966"/>
<g>
	<path fill="#FFFFFF" d="M87.773,50.227H72.507c0-0.803-0.063-1.613-0.185-2.431c-1.338-9.002-9.727-15.212-18.726-13.868
		c-8.187,1.221-14.063,8.265-14.05,16.299H23.662c-3.016,0-5.461,2.443-5.461,5.463v12.671c0,3.02,2.445,5.463,5.461,5.463h64.111
		c3.02,0,5.465-2.443,5.465-5.463V55.69C93.238,52.67,90.793,50.227,87.773,50.227z M25.617,56.072
		c0.533-1.007,1.78-1.393,2.785-0.862c1.007,0.531,1.393,1.78,0.862,2.787c-0.53,1.005-1.778,1.391-2.785,0.86
		C25.47,58.324,25.086,57.079,25.617,56.072z M25.617,61.669c0.533-1.007,1.78-1.393,2.785-0.861
		c1.007,0.532,1.393,1.777,0.862,2.787c-0.53,1.004-1.778,1.39-2.785,0.858C25.47,63.923,25.086,62.676,25.617,61.669z M29.5,69.161
		c-0.532,1.005-1.778,1.392-2.785,0.86c-1.006-0.533-1.392-1.777-0.862-2.785c0.531-1.006,1.781-1.392,2.787-0.86
		C29.645,66.905,30.031,68.155,29.5,69.161z M55.72,63.16c-7.132,0-12.933-5.801-12.933-12.933s5.801-12.933,12.933-12.933
		c7.132,0,12.932,5.801,12.932,12.933S62.853,63.16,55.72,63.16z"/>
	<path fill="#FFFFFF" d="M55.72,40.832c-5.182,0-9.395,4.215-9.395,9.395s4.213,9.395,9.395,9.395c5.177,0,9.392-4.215,9.392-9.395
		S60.897,40.832,55.72,40.832z"/>
</g>
</svg>
