<?xml version="1.0" encoding="utf-8"?>
<!-- Generator: Adobe Illustrator 16.0.0, SVG Export Plug-In . SVG Version: 6.00 Build 0)  -->
<!DOCTYPE svg PUBLIC "-//W3C//DTD SVG 1.1 Tiny//EN" "http://www.w3.org/Graphics/SVG/1.1/DTD/svg11-tiny.dtd">
<svg version="1.1" baseProfile="tiny" id="图层_1"
	 xmlns="http://www.w3.org/2000/svg" xmlns:xlink="http://www.w3.org/1999/xlink" x="0px" y="0px" width="113.391px"
	 height="113.391px" viewBox="0 0 113.391 113.391" xml:space="preserve">
<circle fill="#24B0C9" cx="852.535" cy="37.116" r="22.966"/>
<g>
	<path fill="#FFFFFF" d="M852.921,20.953c-7.658,0-13.866,6.531-13.866,14.588h3.008c0-6.801,4.862-12.31,10.858-12.31
		c6,0,10.861,5.509,10.861,12.31h3.006C866.788,27.484,860.578,20.953,852.921,20.953z"/>
	<g>
		<rect x="837.738" y="36.394" fill="#FFFFFF" width="6.286" height="13.317"/>
	</g>
	<g>
		<rect x="862.137" y="36.288" fill="#FFFFFF" width="6.082" height="13.317"/>
	</g>
	<g>
		<rect x="869.339" y="39.163" fill="#FFFFFF" width="1.748" height="7.423"/>
	</g>
	<g>
		<rect x="834.944" y="39.163" fill="#FFFFFF" width="1.748" height="7.423"/>
	</g>
</g>
<circle fill="#7A9DBD" cx="954.309" cy="88.05" r="22.966"/>
<g>
	<path fill="#FFFFFF" d="M966.457,72.998h-23.869c-1.991,0-3.604,2.592-3.604,5.788v5.626l-0.551-0.514
		c-0.36-0.336-0.928-0.317-1.266,0.045c-0.339,0.361-0.318,0.928,0.042,1.266l1.773,1.656V97.51c0,3.195,1.611,5.785,3.604,5.785
		h23.869c1.991,0,3.604-2.59,3.604-5.785V78.786C970.062,75.59,968.448,72.998,966.457,72.998z M954.522,100.695
		c-6.384,0-11.654-4.771-12.444-10.942l7.425,6.934c0.168,0.155,0.386,0.24,0.611,0.24h4.28c0.496,0,0.896-0.399,0.896-0.896
		s-0.398-0.896-0.896-0.896h-3.927l-8.46-7.897c0.467-6.506,5.892-11.641,12.515-11.641c6.931,0,12.552,5.619,12.552,12.549
		C967.074,95.076,961.453,100.695,954.522,100.695z"/>
	<circle fill="#FFFFFF" cx="954.522" cy="87.797" r="4.426"/>
</g>
<circle fill="none" stroke="#FFFFFF" stroke-width="3" stroke-miterlimit="10" cx="56.697" cy="56.695" r="54.467"/>
<path fill="#FFFFFF" d="M78.072,45.485c0,0,0,0-0.762-2.921C73.51,31.177,62.168,27.54,61.069,26.554
	c-1.601-1.437-1.738-2.889-1.738-2.889v-1.332c0-0.13-0.061-0.262-0.166-0.365c-0.109-0.101-0.255-0.151-0.398-0.151h-1.169
	c-0.143,0-0.29,0.05-0.394,0.151c-0.111,0.1-0.169,0.234-0.169,0.362v52.271c-2.62-1.744-7.086-2.331-11.778-1.271
	c-6.698,1.512-11.295,5.809-10.261,9.596c1.028,3.784,7.295,5.624,14.001,4.116c6.497-1.471,11.012-5.557,10.334-9.258V47.229
	c0,0,1.006,0.172,4.188,1.808c9.953,5.109,14.006,10.422,11.373,27.287c-0.074,0.467,0.334,0.482,0.481,0.017
	c2.054-6.46,2.414-11.784,1.751-16.16C78.724,54.352,78.857,49.505,78.072,45.485z M76.602,57.621
	c-3.174-12.068-14.435-15.924-15.547-16.935c-1.578-1.44-1.724-2.896-1.724-2.896v-4.693c0,0,0.983,0.178,4.23,1.807
	C72.747,39.516,77.649,44.231,76.602,57.621z"/>
</svg>
