<?xml version="1.0" encoding="utf-8"?>
<!-- Generator: Adobe Illustrator 16.0.0, SVG Export Plug-In . SVG Version: 6.00 Build 0)  -->
<!DOCTYPE svg PUBLIC "-//W3C//DTD SVG 1.1 Tiny//EN" "http://www.w3.org/Graphics/SVG/1.1/DTD/svg11-tiny.dtd">
<svg version="1.1" baseProfile="tiny" id="图层_1"
	 xmlns="http://www.w3.org/2000/svg" xmlns:xlink="http://www.w3.org/1999/xlink" x="0px" y="0px" width="113.391px"
	 height="113.391px" viewBox="0 0 113.391 113.391" xml:space="preserve">
<g display="none">
	<path display="inline" fill="#FFFFFF" d="M191.986,30.356h-47.531c-3.961,0-7.177,3.784-7.177,8.45v27.337
		c0,4.663,3.216,8.444,7.177,8.444h47.531c3.965,0,7.176-3.784,7.176-8.444V38.804C199.159,34.14,195.947,30.356,191.986,30.356z
		 M195.476,63.539c0,3.921-2.82,7.1-6.306,7.1h-41.766c-3.479,0-6.305-3.179-6.305-7.1V40.572c0-3.92,2.823-7.099,6.305-7.099
		h41.769c3.481,0,6.306,3.179,6.306,7.099V63.54L195.476,63.539L195.476,63.539z"/>
	<path display="inline" fill="#FFFFFF" d="M129.39,79.972c0,1.492,2.533,2.701,5.66,2.701h66.479c3.13,0,5.66-1.209,5.66-2.701
		v-3.13h-77.8L129.39,79.972L129.39,79.972z M161.34,78.904h13.901v1.708H161.34V78.904z"/>
</g>
<circle fill="none" stroke="#FFFFFF" stroke-width="3" stroke-miterlimit="10" cx="56.696" cy="56.696" r="54.682"/>
<g>
	<path fill="#FFFFFF" d="M76.221,29.472H37.169c-4.251,0-7.697,3.445-7.697,7.697v39.053c0,4.251,3.446,7.697,7.697,7.697h39.052
		c4.252,0,7.699-3.446,7.699-7.697V37.169C83.92,32.917,80.473,29.472,76.221,29.472z M80.867,74.597c0,3.46-2.81,6.269-6.271,6.269
		H38.794c-3.462,0-6.269-2.809-6.269-6.269V38.794c0-3.462,2.807-6.271,6.269-6.271h35.804c3.461,0,6.271,2.809,6.271,6.271
		L80.867,74.597L80.867,74.597z"/>
	<path fill="#FFFFFF" d="M74.578,50.68h-1.945V39.504c0-0.859-0.695-1.555-1.555-1.555h-0.261c-0.858,0-1.553,0.695-1.553,1.555
		V50.68H67.32c-0.858,0-1.555,0.698-1.555,1.555v1.097c0,0.858,0.695,1.555,1.555,1.555h1.945V73.59
		c0,0.859,0.693,1.553,1.553,1.553h0.261c0.858,0,1.555-0.692,1.555-1.553V54.886h1.945c0.858,0,1.553-0.696,1.553-1.555v-1.097
		C76.131,51.378,75.438,50.68,74.578,50.68z"/>
	<path fill="#FFFFFF" d="M60.324,71.085h-1.943V39.504c0-0.859-0.697-1.555-1.556-1.555h-0.26c-0.858,0-1.555,0.695-1.555,1.555
		v31.582h-1.943c-0.858,0-1.555,0.693-1.555,1.553v1.097c0,0.858,0.696,1.558,1.555,1.558h7.258c0.856,0,1.555-0.698,1.555-1.558
		v-1.097C61.879,71.78,61.182,71.085,60.324,71.085z"/>
	<path fill="#FFFFFF" d="M46.07,40.373h-1.942v-0.87c0-0.859-0.696-1.555-1.556-1.555h-0.26c-0.858,0-1.555,0.695-1.555,1.555v0.87
		h-1.943c-0.858,0-1.556,0.695-1.556,1.555v1.096c0,0.859,0.697,1.556,1.556,1.556h1.943V73.59c0,0.859,0.696,1.553,1.555,1.553
		h0.26c0.859,0,1.556-0.692,1.556-1.553V44.579h1.942c0.859,0,1.556-0.696,1.556-1.556v-1.096
		C47.625,41.069,46.929,40.373,46.07,40.373z"/>
</g>
</svg>
