<?xml version="1.0" encoding="utf-8"?>
<!-- Generator: Adobe Illustrator 16.0.0, SVG Export Plug-In . SVG Version: 6.00 Build 0)  -->
<!DOCTYPE svg PUBLIC "-//W3C//DTD SVG 1.1 Tiny//EN" "http://www.w3.org/Graphics/SVG/1.1/DTD/svg11-tiny.dtd">
<svg version="1.1" baseProfile="tiny" id="图层_1"
	 xmlns="http://www.w3.org/2000/svg" xmlns:xlink="http://www.w3.org/1999/xlink" x="0px" y="0px" width="113.391px"
	 height="113.391px" viewBox="0 0 113.391 113.391" xml:space="preserve">
<circle fill-rule="evenodd" fill="none" stroke="#FFFFFF" stroke-width="3" stroke-miterlimit="10" cx="56.698" cy="56.695" r="54.907"/>
<g>
	<path fill="#FFFFFF" d="M56.51,28.701c-14.88,0-24.105,10.799-24.105,26.454h3.007c0-13.215,9.448-23.92,21.098-23.92
		c11.656,0,21.106,10.705,21.106,23.92h3.005C80.622,39.5,71.389,28.701,56.51,28.701z"/>
	<g>
		<rect x="28.904" y="56.814" fill="#FFFFFF" width="11.269" height="25.873"/>
	</g>
	<g>
		<rect x="73.471" y="56.605" fill="#FFFFFF" width="10.872" height="25.877"/>
	</g>
	<g>
		<rect x="86.518" y="62.191" fill="#FFFFFF" width="3.396" height="14.425"/>
	</g>
	<g>
		<rect x="23.475" y="62.191" fill="#FFFFFF" width="3.396" height="14.425"/>
	</g>
</g>
<circle display="none" fill-rule="evenodd" fill="none" stroke="#FFFFFF" stroke-width="3" stroke-miterlimit="10" cx="176.03" cy="56.758" r="54.467"/>
<path display="none" fill="#FFFFFF" d="M200.71,43.124c0,0,0,0-0.881-3.373c-4.387-13.145-17.483-17.344-18.75-18.483
	c-1.849-1.658-2.008-3.335-2.008-3.335v-1.537c0-0.151-0.069-0.302-0.191-0.421c-0.127-0.116-0.294-0.175-0.459-0.175h-1.352
	c-0.164,0-0.335,0.059-0.453,0.175c-0.129,0.115-0.195,0.269-0.195,0.418v60.35c-3.025-2.014-8.182-2.692-13.6-1.466
	c-7.731,1.744-13.04,6.706-11.846,11.078c1.187,4.37,8.423,6.495,16.164,4.752c7.502-1.697,12.715-6.414,11.932-10.688V45.137
	c0,0,1.161,0.199,4.835,2.088c11.491,5.898,16.171,12.032,13.131,31.505c-0.086,0.538,0.385,0.556,0.555,0.018
	c2.372-7.457,2.789-13.604,2.023-18.657C201.463,53.362,201.615,47.764,200.71,43.124z M199.01,57.136
	c-3.664-13.933-16.665-18.386-17.949-19.552c-1.822-1.663-1.99-3.343-1.99-3.343v-5.419c0,0,1.136,0.205,4.885,2.085
	C194.56,36.235,200.22,41.677,199.01,57.136z"/>
</svg>
