<?xml version="1.0" encoding="utf-8"?>
<!-- Generator: Adobe Illustrator 16.0.0, SVG Export Plug-In . SVG Version: 6.00 Build 0)  -->
<!DOCTYPE svg PUBLIC "-//W3C//DTD SVG 1.1 Tiny//EN" "http://www.w3.org/Graphics/SVG/1.1/DTD/svg11-tiny.dtd">
<svg version="1.1" baseProfile="tiny" id="图层_1"
	 xmlns="http://www.w3.org/2000/svg" xmlns:xlink="http://www.w3.org/1999/xlink" x="0px" y="0px" width="113.391px"
	 height="113.391px" viewBox="0 0 113.391 113.391" xml:space="preserve">
<circle fill="none" stroke="#FFFFFF" stroke-width="2" stroke-miterlimit="10" cx="56.695" cy="56.695" r="54.632"/>
<g>
	<path fill="#FFFFFF" d="M80.39,29.468H32.858c-3.962,0-7.175,3.784-7.175,8.45v27.337c0,4.663,3.213,8.444,7.175,8.444H80.39
		c3.963,0,7.174-3.784,7.174-8.444V37.916C87.563,33.252,84.351,29.468,80.39,29.468z M83.881,62.65c0,3.921-2.82,7.1-6.306,7.1
		H35.811c-3.481,0-6.305-3.179-6.305-7.1V39.683c0-3.92,2.824-7.099,6.305-7.099h41.767c3.483,0,6.306,3.179,6.306,7.099V62.65
		H83.881z"/>
	<path fill="#FFFFFF" d="M17.794,79.084c0,1.492,2.534,2.701,5.661,2.701h66.48c3.128,0,5.66-1.209,5.66-2.701v-3.13H17.794V79.084z
		 M49.744,78.015h13.901v1.708H49.744V78.015z"/>
</g>
</svg>
